<svg id="Layer_1" data-name="Layer 1" xmlns="http://www.w3.org/2000/svg" viewBox="0 0 273.06 263.37"><title>letter</title><path d="M30.69,277.13a37.91,37.91,0,0,1-7-16.07c-4.67-23.33-9.68-46.57-14.21-69.89-1.73-8.9-2.47-18-3.8-27.74a329.71,329.71,0,0,1,30-13.78c36.85-13,73.87-25,110.89-37.41,16.11-5.4,32.27-10.88,48.47-16a60.87,60.87,0,0,1,11.66-1.13c-1.9,13.83,3.5,25.23,5.27,37.24,2.77,18.58,5.57,37.19,8.64,55.77,1.3,8.12,3,16.15,4.32,24.27a76.53,76.53,0,0,1,.39,9.08c-22.12,5.91-43.2,11.49-64.54,17.28S117.22,250.56,95.58,257,52.9,270.17,30.69,277.13Zm90.41-54.47c-10-5.75-17.75-14.78-29-18.28a108.35,108.35,0,0,1-13-5.35C59.85,190,40.41,180.8,21,171.94c-3.06-1.42-6.26-2.5-10.75-4.32C16.7,203,22.7,236.74,32.38,271.3c62-20.39,123.8-38.67,186.48-53.57-2.46-18.44-4.88-36.72-7.34-55a275,275,0,0,0-10.72-54.43,34.15,34.15,0,0,0-3.54,3.16c-18,23.06-36.24,46-53.87,69.33-6.65,8.64-12.95,17.92-15,29.5A13.9,13.9,0,0,1,121.1,222.66ZM17.86,164.12c5.92,5.71,68.25,33.74,77.76,34.86,5.23-11.23,5.23-11.23,15.85-8a93.9,93.9,0,0,1,10.15-10.19c4.54-3.33,8.64-.43,11.49,2.94l63.29-81.3C176,104.51,33,154.27,17.86,164.12Z" transform="translate(-5.73 -13.75)"/><path d="M226.55,117c3.76-4,7.3-7.43,10.41-11.23A53.64,53.64,0,0,0,249.18,79.8c2.55-16.46,5.45-32.83,7.65-49.33a99.43,99.43,0,0,0-.69-16.72c1.73,1.47,3.8,2.34,4.32,3.72a38.66,38.66,0,0,1,1.42,10.37,256.44,256.44,0,0,1-8.64,57.1A58.17,58.17,0,0,1,234.41,116C232.64,117.64,230.22,120.32,226.55,117Z" transform="translate(-5.73 -13.75)"/><path d="M239.51,130.86c13-5.22,19.83-16.15,25.92-27.47,3.8-6.91,6.35-14.47,9.5-21.6.52-1.21,1.12-2.42,1.64-3.59h1.94a21.71,21.71,0,0,1,0,6.92,104.92,104.92,0,0,1-19.78,36.93,59.75,59.75,0,0,1-13,10,15.31,15.31,0,0,1-6,.91Z" transform="translate(-5.73 -13.75)"/><path d="M275.84,125.16c2.59,5.87-1.95,9.11-5,12.61-10.72,12.31-14.43,14.95-20.48,14.69Z" transform="translate(-5.73 -13.75)"/></svg>