<svg id="Layer_1" data-name="Layer 1" xmlns="http://www.w3.org/2000/svg" viewBox="0 0 190.49 275.01"><title>santa</title><path d="M228.54,143.74a24.77,24.77,0,0,0-10.94-12c6.89-3.67,10.45-7.49,10.56-11.48a9.43,9.43,0,0,0-5-7.61c-.26,0-6.29-2.87-11.74,5.75a37,37,0,0,0-5.25.71,13.38,13.38,0,0,0-7.5-7.46c-6.37-2.35-13.57.75-15.67,1.78a38.71,38.71,0,0,1-13.92-10.13,80.7,80.7,0,0,0,1-28,67.77,67.77,0,0,0,6.6-5.48c4.45,4.62,5.74,15.1,5.74,15.21v.63a9,9,0,0,0-1.7.78,8.29,8.29,0,0,0,2.53,15.24,8.1,8.1,0,0,0,1.9.23,8.3,8.3,0,0,0,2.44-16.22c5.16-7.72,10.82-41-13.9-60.28-23.68-18.4-45.64,2-48.8,5a17.55,17.55,0,0,0-14.64,15.68c-.6.51-1.83,1.66-3.47,3.3l-1.61-1.07c0-2.38,0-12.94-6.6-17.62a10.82,10.82,0,0,0-1.81-1,10.75,10.75,0,0,0,1-7.32c2-2,7.37-7.84,4-12.41a7.06,7.06,0,0,0-6.63-2.61,16.44,16.44,0,0,0-11.85,8.18c-4.77-3.13-21-12.25-32.1-3.18a10.59,10.59,0,0,0-4.3,11C48.58,31,58.34,38.62,67.3,41.64a13.19,13.19,0,0,0-1.44,4.07C64.48,54.33,72,61.24,72.38,61.56L74,59.78a39.87,39.87,0,0,0,.46,21c2,5.54,4.42,14.35,3.48,16.82a17.08,17.08,0,0,1-2.36,2.87c-5.57,6.23-18.66,20.78-21.67,55.26v.48c.75,2.87,1.18,7.61-.34,8.62A23.65,23.65,0,0,0,43.7,180c-.8,6,1.41,12,6.6,17.83a55.47,55.47,0,0,0,4.45,4.36,71.35,71.35,0,0,0,5,16,18.07,18.07,0,0,0-5.34,12.17,17.21,17.21,0,0,0,6.4,12.57l-.26.32c-3.44-.29-16.39-.49-20.46,11.48-1.5,4.39.48,8.61,5.45,11.48a34.46,34.46,0,0,0,16.94,4.08,30.72,30.72,0,0,0,19.49-6.17l.6,3.33H83.8c.43,0,10.88-.69,14.76-6.23a8.3,8.3,0,0,0,1.12-7.09,12.53,12.53,0,0,0-2.24-11.2,16.5,16.5,0,0,0,4.36-10.68,13,13,0,0,0-4.36-8.87l1.18-1.12a89.43,89.43,0,0,0,14.15,1.15h2.32a83.33,83.33,0,0,0,22.82,12.09,18.85,18.85,0,0,0,4.22,12.6,20.42,20.42,0,0,0,15.1,6.29,17.75,17.75,0,0,1,1.06,4.88,26.47,26.47,0,0,0,5.17,17.54,16.39,16.39,0,0,0,12.95,5.48h.17a19,19,0,0,0,16.48-7.55c4.65-6.78,4.53-17.57-.32-30.37l-.34-.52a49.74,49.74,0,0,0-9.13-7.23c1.15-3.3,3.67-12.37-.43-19.12a16.66,16.66,0,0,0-13.06-7.29c.09-1.34.16-2.72.2-4.14a161,161,0,0,0,13.86-9.44,16,16,0,0,0,3.53-13.32c-1.49-7.09-8.12-13.35-19.72-18.63a13.88,13.88,0,0,0-1.32-7.84,15.1,15.1,0,0,0,1.09-7.72,27.25,27.25,0,0,0,8.61,1.67,14.35,14.35,0,0,0,9.28,3.3,18.59,18.59,0,0,0,5.34-.72,20,20,0,0,0,5.74,4.31c4.39,8.29,9.67,12.91,15.61,13.89a13.09,13.09,0,0,0,2,0,18.54,18.54,0,0,0,12.2-5.43l.26-.37C230.4,157.64,231.12,150.17,228.54,143.74ZM189.7,90.64a5.41,5.41,0,1,1-4.62-2.56,6.32,6.32,0,0,1,1.23,0A5.42,5.42,0,0,1,189.7,90.64Zm-17.83-63c23.83,18.49,17.23,49.11,13.61,55.8H185c-.52-3.3-2.27-12-6.92-16.24a15.23,15.23,0,0,0,1.27-7.32,56.18,56.18,0,0,0-50.07-29.57C135.67,24.79,153,13,171.87,27.66Zm-46.16,5.57c37.32-1.35,50.87,27.55,50.9,27.61a17.58,17.58,0,0,1-1.67,6.4v.38a75.41,75.41,0,0,1-6.25,5.19,20,20,0,0,1-5.23-5.91s-.14-.55-.37-1.18l-.37-1.15h0A31.87,31.87,0,0,0,149.17,48.5c-7.78-4.36-17.4-4.88-28.71-1.55A18.06,18.06,0,0,1,113,45.86,14.51,14.51,0,0,1,125.71,33.23Zm20.76,35.42c-.81,1.09-4.08,4.45-11.28,1s-6.63-6.94-6.35-7.86a4.37,4.37,0,0,1,2.16-1V57.91a6.27,6.27,0,0,0-3.36,1.24,34.65,34.65,0,0,0-7.52-4.25c.6-1.89,1.35-4.16,1.86-5.31,10.22-2.87,18.92-2.47,25.84,1.41a29.53,29.53,0,0,1,12.77,16,48.62,48.62,0,0,0-3.39,4,36.5,36.5,0,0,0-8-3.27,6.8,6.8,0,0,0-1.32-3l-2.26,1.75A4.12,4.12,0,0,1,146.47,68.65ZM112,48.56a27.07,27.07,0,0,0,6.83,1.37c-.57,1.53-1.15,3.36-1.49,4.51-2.41,0-7.69.32-9.21,3.65-1.24,2.69.37,6.23,4.88,10.76l2-2c-4.79-4.82-4.62-6.89-4.3-7.55.8-1.78,5.25-2.06,7.43-1.95A28.85,28.85,0,0,1,126,61.5a6.83,6.83,0,0,0,.14,3.56,13.69,13.69,0,0,0,7.73,7.21c8.61,4.13,13.2,0,14.66-1.75a48,48,0,0,1,8.21,3.53c1.15,1.23,3.76,4.62,2.87,6.71-.66,1.67-3.7,2.62-8.61,2.73v2.87c6.29,0,9.94-1.61,11.11-4.51,1.41-3.44-1.43-7.37-2.87-9.09a27.89,27.89,0,0,1,2.38-2.88,33.19,33.19,0,0,0,5.23,5.75c2.61,21.81-1.49,37.63-12.23,47.07-17,15.1-46.85,8.67-50.18,7.9-11.94-10-18-21.42-18.08-33.88C86.21,73,108,52.06,112,48.5Zm-7.46,119.81a18.22,18.22,0,0,1-4.85,12.38,12.25,12.25,0,0,1-8,3.18,84.85,84.85,0,0,1-14.84-4.73h0c-8.62-5.17-4.57-15.19-3.76-17l.14-.23c1.66-3.7,4.48-7.75,6.09-7.86,4.3-.32,23.3,2.87,24.34,6.48a18.53,18.53,0,0,1,1,6.35l-.2,1.43h.12Zm-23-17.05c.89-11.91,7.61-25.2,10.28-30.08A63.21,63.21,0,0,0,103,133.09l.4.18.69.17A199.25,199.25,0,0,0,97,153.88a83.61,83.61,0,0,0-15.56-2.61ZM49.64,22.78A7.82,7.82,0,0,1,53,14.6c11.2-9.1,29.77,4,29.94,4.13l1.38,1L85,18.19a13.93,13.93,0,0,1,10.36-8,4.49,4.49,0,0,1,4,1.47c2,2.87-2.56,7.66-4.34,9.18l-.77.69.4.95A7.87,7.87,0,0,1,94,28.86a24,24,0,0,0-14,2.56,29.28,29.28,0,0,0-11,7.75C60.72,36.64,51.16,29.47,49.64,22.78ZM74.16,59.26c-1-1-6.49-6.77-5.46-13.11.78-4.71,4.94-8.76,12.4-12.12,7-3.1,12.26-3.41,15.82-1,4.59,3.19,5.31,10.37,5.4,13.75a19,19,0,0,0-21.79,2.42,22,22,0,0,0-6.37,10Zm3.64,43.06a15,15,0,0,0,2.87-3.76c1.67-4.25-2.58-16.45-3.44-18.77,0-.17-5.74-18.63,5.2-28.39,8.84-7.87,18.8-2.36,22.36,0C96.75,60,83.34,77,83.46,96.61a41.26,41.26,0,0,0,6.46,21.73c-2,3.39-10.48,18.77-11.48,32.87-3.19.77-6.06,5.74-7.32,8.18L57,153.65c3.36-31.87,15.53-45.41,20.81-51.3ZM57.25,157l12.89,5.13a21.31,21.31,0,0,0-1.41,6.49c-2.87-.49-8.61-2-11.14-6.51A20.84,20.84,0,0,0,57.25,157Zm-.57,8.61a21,21,0,0,0,12.2,5.74,13.26,13.26,0,0,0,5.51,9.41l-.92,1.93a43,43,0,0,1-17.65-16.13,5.41,5.41,0,0,0,.77-.89ZM58.34,205a88.59,88.59,0,0,0,36.77,16.62c-8,7.35-14.92,10.19-20.78,8.3C64.71,226.9,60.12,212.24,58.34,205Zm38.35,49.46a5.74,5.74,0,0,1-.57,5.11c-2.38,3.42-8.61,4.54-11.31,4.88l-1.12-6.17-2,2.07c-8.13,8.61-25.84,8.95-34.85,3.47-2.67-1.61-5.57-4.34-4.22-8.24,2.87-8.44,11.08-9.62,15.41-9.62a20.85,20.85,0,0,1,2.5,0,9.45,9.45,0,0,1,4.79,5.75l2.87-.26a10.45,10.45,0,0,0-4.44-6.78,37.74,37.74,0,0,0,31.28-.23,9.26,9.26,0,0,1,1.7,8.84l-.26.52Zm2.16-22.22a14.42,14.42,0,0,1-4.28,9.36,35.29,35.29,0,0,1-31.18,0,15.22,15.22,0,0,1-6.14-11.25,14.86,14.86,0,0,1,4-9.45,23.17,23.17,0,0,0,12.32,11.83,14.88,14.88,0,0,0,4.59.72c5.31,0,11.14-2.87,17.4-8.15a10.28,10.28,0,0,1,3.33,7Zm20.92-9.07A111.15,111.15,0,0,0,167,207.9c-.63,13.35-4.33,21.82-11.08,25.06-11.51,5.43-29-5-36.2-9.76Zm70.53,22.31c4.39,11.77,4.57,21.53.52,27.44-2.87,4.13-7.61,6.26-14.13,6.31a13.58,13.58,0,0,1-10.93-4.5,23.4,23.4,0,0,1-4.62-15.19,16.79,16.79,0,0,0-1-5.74A47.2,47.2,0,0,0,181.89,239,45.57,45.57,0,0,1,190.3,245.51Zm-9.9-26.59c4,6.49.34,16.31-.17,17.63a44.71,44.71,0,0,1-22.11,14.93,18.19,18.19,0,0,1-13.78-5.34,15.77,15.77,0,0,1-3.56-9.82,32.56,32.56,0,0,0,7.61,1,20.06,20.06,0,0,0,8.76-1.86c6.83-3.27,10.9-10.85,12.28-22.39A14,14,0,0,1,180.4,218.92Zm4.16-35.07a13.49,13.49,0,0,1-2.64,10.65h0C117.73,243.09,66.75,212,52.54,195.87c-4.62-5.22-6.6-10.44-5.91-15.55a19.92,19.92,0,0,1,6.83-11.75,45.64,45.64,0,0,0,20.1,17.52l1.26.51,2-4.19a103.76,103.76,0,0,0,13.38,4.08v3.07l1,.29a84.11,84.11,0,0,0,23,3.3,85.3,85.3,0,0,0,57.42-23.25c7.43,4.22,12,9,13,14Zm-15.64-15.39c-6.41,6-35,30-75.9,18.92v-.63a15.11,15.11,0,0,0,8.61-3.88,16.06,16.06,0,0,0,2-2.32,90.14,90.14,0,0,0,15.64,1.4,74.63,74.63,0,0,0,46.22-15.1h0C166.68,167.37,167.82,167.91,168.92,168.46Zm-63.73,9.39a25.73,25.73,0,0,0,2.24-9.16,164.53,164.53,0,0,0,16.91.89c13.66,0,31.26-1.87,39.78-10.36a10.35,10.35,0,0,1,.69,5.36l-.49-.51C164.09,164.24,142.22,184,105.19,177.85Zm59.68-32.58-7.15-2.56,5.74,4.91c2.27,1.95.69,6.86,0,8.61l-.26.55-.34-.32c-11.86,13.12-48.2,10.11-55.32,9.33a26.06,26.06,0,0,0-1.09-6.06c-.6-2.09-3.27-3.7-6.72-5a207.2,207.2,0,0,1,7.27-20.7,86.77,86.77,0,0,0,15.84,1.46c10.83,0,24.09-2.18,34-10.9a38.66,38.66,0,0,0,11.34-18.06,42.07,42.07,0,0,0,12.51,9.1,35.81,35.81,0,0,0-6.34,32.24A61,61,0,0,1,164.87,145.27ZM188,148a9.36,9.36,0,0,0,1,2.73,12.59,12.59,0,0,1-11.48-2.33A32.8,32.8,0,0,1,184,116c1.35-.69,8.12-3.81,13.66-1.75a10.44,10.44,0,0,1,5.74,5.49,16.62,16.62,0,0,0-8.61,5.94,15.65,15.65,0,0,0-2.61,11.91A11.93,11.93,0,0,0,188,148Zm36,16.45a14.85,14.85,0,0,1-11.48,4.28c-5.08-.75-9.7-5.08-13.75-12.95l-.23-.46-.57-.2s-6.37-2.87-7.18-7.63c-.46-2.62.89-5.43,4-8.39l.63-.6-.23-.83A13.07,13.07,0,0,1,197,127.53c2.7-3.76,7.87-5.75,15.33-6.23h.77l.41-.66c2.87-4.65,5.54-5.46,7.09-5.46a3.78,3.78,0,0,1,1.29.2,6.72,6.72,0,0,1,3.47,5c0,2.21-2.12,5.74-11.48,10.22l-3,1.43,3.07,1.27a23,23,0,0,1,12,11.48C228.11,150.49,227.48,157,223.94,164.44Z" transform="translate(-39.57 -7.31)"/><path d="M124.94,86.88a14.4,14.4,0,0,0,6.89,1.75,12.89,12.89,0,0,0,4.56-.8,11,11,0,0,0,6.55-7l.63-1.81h-1.92c-13-.66-17.86-7.29-18-7.58l-1.75-2.55-.81,2.87C121,72.32,118.08,83.09,124.94,86.88Zm-1.67-11.6a27.94,27.94,0,0,0,16.16,6.32A8,8,0,0,1,135.36,85a11.06,11.06,0,0,1-9-.57C123.13,82.6,123,78.18,123.27,75.28Z" transform="translate(-39.57 -7.31)"/><path d="M95.8,169.52l1.35-5.25-.86-.58c-.4-.25-9.85-6.37-16.91-3.73H79l-.23.29c-.26.32-6.29,7.72-1.49,13.18,3.18,3.61,9.73,4.16,13.37,4.16h3.5l2.07-6.35L92.82,170v-.43h2.87ZM92.62,173,92,174.86c-3.3.14-9.93-.2-12.57-3.18s.4-7.9,1.32-9.13c4.59-1.44,10.82,1.75,13.09,3l-.26,1.06H90.32l-.75,5.2Z" transform="translate(-39.57 -7.31)"/><path d="M164.24,259.06l2.41,1.55a14,14,0,0,1,14.92-5.75l.75-2.87C170.84,248.86,164.29,259,164.24,259.06Z" transform="translate(-39.57 -7.31)"/><ellipse cx="147.4" cy="59.76" rx="3.01" ry="2.24" transform="translate(9.67 177.6) rotate(-73.96)"/><ellipse cx="135.91" cy="54.98" rx="3.01" ry="2.24" transform="translate(-19.23 137.88) rotate(-60)"/><path d="M77,27.69l2.47-1.47c-2.21-3.7-7-2.87-9.53-1.63l1.17,2.47S75.56,25.28,77,27.69Z" transform="translate(-39.57 -7.31)"/></svg>